<svg version="1.1" id="Layer_1" xmlns="http://www.w3.org/2000/svg" xmlns:xlink="http://www.w3.org/1999/xlink" x="0px" y="0px" viewBox="0 0 25 22" style="display: block;" xml:space="preserve">
<style type="text/css">
	.st0{fill:#FFFFFF;}
	.st1{fill:#FFFFFF;stroke:#000000;stroke-width:0.4;stroke-miterlimit:10;}
	.st2{fill:none;stroke:#000000;stroke-width:0.4;stroke-miterlimit:10;}
</style>
<path d="M24.7,1.7l-1.5-1.5C23.1,0.1,22.9,0,22.7,0H7.2c-0.6,0-1,0.5-0.9,1.1C6.4,2.4,6.3,4.1,6,6l2-5l1,1H7v17.4
	c0,0.4,0.2,0.7,0.6,0.9l3.3,1.6C11,22,11.2,22,11.4,22H24c0.6,0,1-0.4,1-1h0v0v-1V2.4C25,2.1,24.9,1.9,24.7,1.7z"></path>
<g>
	<path class="st0" d="M23,0.9c0,0,0,9.3-5.4,16.1c-0.2,0.3-0.6,0.5-1,0.5H1.4C7.1,10.7,7,1,7,1"></path>
	<g>
		<path d="M22.4,0.9c0,1.7-0.2,3.4-0.6,5c-0.7,3.6-2,7.1-4.1,10c-0.6,0.9-0.9,1-1.9,1c-0.8,0-1.6,0-2.5,0c-2.4,0-4.8,0-7.2,0
			c-1.6,0-3.2,0-4.8,0c0.1,0.3,0.3,0.7,0.4,1C5.6,13.3,7.7,6.9,7.6,1c0-0.8-1.2-0.8-1.2,0C6.5,6.6,4.5,12.7,1,17
			c-0.3,0.4-0.1,1,0.4,1c4,0,8,0,12,0c0.9,0,1.8,0,2.7,0c0.6,0,1.2,0,1.7-0.3c0.7-0.5,1.2-1.4,1.6-2.1c0.6-0.9,1.1-1.9,1.6-2.9
			c0.8-1.7,1.4-3.5,1.8-5.3c0.5-2.1,0.9-4.4,0.9-6.6C23.6,0.1,22.4,0.1,22.4,0.9L22.4,0.9z"></path>
	</g>
</g>
<g>
	<polygon points="3.7,14.1 19.9,14.1 17.6,17 1.4,17.5 	"></polygon>
</g>
<rect x="1" y="18" class="st0" width="18" height="1"></rect>
<g>
	<g>
		<path d="M16.3,4c0,0.5-0.4,1-0.7,1.3c0.4,0.1,0.7,0.3,1.1,0.4c0-1.5-1.6-2.3-2.9-2.4c-1.1-0.1-2.2,0.4-2.8,1.4
			c-0.4,0.9-0.3,1.9,0.5,2.5c1.1,0.8,3,0.7,3.7,2c0.2,0.3,0.2,0.7,0.2,1c0-0.1,0,0.1,0,0.1c0,0-0.1,0.2,0,0.1c0,0.1-0.1,0.2-0.2,0.2
			C15,10.9,15,10.9,14.9,11c-0.1,0-0.1,0.1-0.2,0.1c0,0-0.3,0.1-0.2,0.1c-0.1,0.1-0.3,0.1-0.4,0.1c-0.1,0-0.2,0-0.2,0.1
			c-0.2,0,0,0-0.2,0c-0.7,0.1-1.3,0-1.9-0.4c0,0-0.1-0.1,0,0c0,0-0.1-0.1-0.1-0.1c-0.1-0.1-0.1-0.1-0.2-0.2c0.1,0.1-0.1-0.1-0.1-0.1
			c0,0,0-0.1,0-0.1c-0.1-0.2,0,0.1,0-0.1c-0.1-0.3-0.1-0.6,0-1c-0.4-0.1-0.8-0.1-1.2-0.2c0,0,0,0.1,0,0.1c0,0,0,0.1,0,0.1
			c0,0.1,0-0.2,0,0c0,0.2-0.1,0.4-0.2,0.6c-0.2,0.6-0.7,1-1.3,1.3c-0.7,0.4-0.1,1.4,0.6,1.1c1.1-0.6,2-1.8,2.1-3.1
			c0-0.7-1.1-0.9-1.2-0.2c-0.2,0.8-0.1,1.6,0.3,2.3c0.4,0.6,1.1,1,1.8,1.2c1.3,0.3,3.1,0.1,3.9-1.1c0.5-0.7,0.5-1.6,0.2-2.3
			c-0.3-0.8-1-1.4-1.8-1.8c-0.4-0.2-0.8-0.3-1.2-0.5c-0.2-0.1-0.4-0.1-0.5-0.2c-0.1,0-0.2-0.1-0.3-0.1c0,0-0.2-0.1-0.1-0.1
			c-0.1-0.1-0.3-0.1-0.4-0.2c-0.1,0,0,0.1-0.1,0C12,6.1,12,6.1,11.9,6c-0.1-0.2,0-0.5,0.2-0.8c0.6-0.8,2-0.7,2.8-0.2
			C15,5,15,5,15,5.1c0,0,0.2,0.2,0.1,0.1c0,0.1,0.1,0.1,0.1,0.2c0.1,0.1,0,0,0,0.1c0,0.1,0,0.2,0.1,0.3c0-0.1,0-0.1,0,0
			c0,0.5,0.7,0.8,1.1,0.4c0.6-0.6,1-1.4,1.1-2.2C17.5,3.2,16.3,3.2,16.3,4L16.3,4z"></path>
	</g>
</g>
</svg>